<svg xmlns="http://www.w3.org/2000/svg" width="41" height="102" viewBox="0 0 41 102" fill="none"><path d="M24.4 99.35L22.7661 100.503L22.7827 100.527L22.8 100.55L24.4 99.35ZM22.6 25.85H24.6V21.7883L21.3806 24.2647L22.6 25.85ZM14.8 31.85L15.9534 33.4839L15.9869 33.4603L16.0194 33.4352L14.8 31.85ZM4 18.05L2.77467 16.4693L2.758 16.4822L2.7416 16.4955L4 18.05ZM23.35 3.04999L22.1351 1.46124L22.1247 1.46931L23.35 3.04999ZM27.55 0.649996L27.0238 -1.27953L27.55 0.649996ZM38.2 2L36.8434 3.4696L36.8434 3.4696L38.2 2ZM39.7 96.8L37.8026 96.1675L37.77 96.2654L37.7476 96.3661L39.7 96.8ZM38.35 99.35L36.8448 98.033L36.8381 98.0407L36.8315 98.0484L38.35 99.35ZM35.8 101L35.1165 99.1204L35.0433 99.147L34.9724 99.1793L35.8 101ZM31.6 99.75C28.1479 99.75 26.6053 98.957 26 98.15L22.8 100.55C24.5947 102.943 27.8521 103.75 31.6 103.75V99.75ZM26.0339 98.1966C25.0619 96.8195 24.6 95.3695 24.6 93.8H20.6C20.6 96.2305 21.3381 98.4805 22.7661 100.503L26.0339 98.1966ZM24.6 93.8V25.85H20.6V93.8H24.6ZM21.3806 24.2647L13.5806 30.2647L16.0194 33.4352L23.8194 27.4352L21.3806 24.2647ZM13.6466 30.2161C12.2297 31.2163 10.875 31.65 9.55 31.65V35.65C11.825 35.65 13.9703 34.8837 15.9534 33.4839L13.6466 30.2161ZM9.55 31.65C8.16573 31.65 6.67087 31.0744 5.03359 29.6095L2.36641 32.5905C4.52913 34.5255 6.93427 35.65 9.55 35.65V31.65ZM5.03359 29.6095C3.60214 28.3287 2.85 26.6436 2.85 24.35H-1.15C-1.15 27.6564 -0.00213432 30.4713 2.36641 32.5905L5.03359 29.6095ZM2.85 24.35C2.85 22.5071 3.58415 20.9598 5.2584 19.6045L2.7416 16.4955C0.215855 18.5402 -1.15 21.1929 -1.15 24.35H2.85ZM5.22533 19.6307L24.5753 4.63067L22.1247 1.46931L2.77467 16.4693L5.22533 19.6307ZM24.5649 4.63871C26.2077 3.38248 27.358 2.7754 28.0762 2.57952L27.0238 -1.27953C25.542 -0.875404 23.8923 0.117516 22.1351 1.46127L24.5649 4.63871ZM28.0762 2.57952C28.9606 2.33833 30.0753 2.19999 31.45 2.19999V-1.80001C29.8247 -1.80001 28.3394 -1.63835 27.0238 -1.27953L28.0762 2.57952ZM31.45 2.19999C34.5135 2.19999 36.1145 2.79671 36.8434 3.4696L39.5566 0.530392C37.6855 -1.19672 34.7865 -1.80001 31.45 -1.80001V2.19999ZM36.8434 3.4696C37.1103 3.71597 37.4564 4.23801 37.7269 5.27827C37.9942 6.30656 38.15 7.69804 38.15 9.5H42.15C42.15 7.50195 41.9808 5.74344 41.5981 4.27173C41.2186 2.81198 40.5897 1.48403 39.5566 0.53039L36.8434 3.4696ZM38.15 9.5V94.1H42.15V9.5H38.15ZM38.15 94.1C38.15 94.7736 38.0384 95.4604 37.8026 96.1675L41.5974 97.4325C41.9617 96.3396 42.15 95.2264 42.15 94.1H38.15ZM37.7476 96.3661C37.6308 96.8919 37.3582 97.4463 36.8448 98.033L39.8552 100.667C40.7418 99.6537 41.3692 98.5081 41.6524 97.2339L37.7476 96.3661ZM36.8315 98.0484C36.5081 98.4258 35.9786 98.8069 35.1165 99.1204L36.4835 102.88C37.8214 102.393 38.992 101.674 39.8685 100.652L36.8315 98.0484ZM34.9724 99.1793C34.2155 99.5233 33.1228 99.75 31.6 99.75V103.75C33.4772 103.75 35.1845 103.477 36.6276 102.821L34.9724 99.1793Z" fill="#272727"></path></svg>