<svg xmlns="http://www.w3.org/2000/svg" width="1206" height="106" viewBox="0 0 1206 106" fill="none"><path d="M4.5 53.2V56.675H9.075C9.225 56.675 9.375 56.6417 9.525 56.575C9.69167 56.4917 9.84167 56.375 9.975 56.225C10.1083 56.0583 10.2167 55.8667 10.3 55.65C10.4 55.4167 10.45 55.15 10.45 54.85C10.45 54.3 10.2833 53.8917 9.95 53.625C9.63333 53.3417 9.3 53.2 8.95 53.2H4.5ZM4.5 59.45V64.1H9.225C9.40833 64.1 9.6 64.0583 9.8 63.975C10.0167 63.8917 10.2167 63.7583 10.4 63.575C10.5833 63.3917 10.7333 63.1583 10.85 62.875C10.9833 62.575 11.05 62.2083 11.05 61.775C11.05 61.5083 11 61.2417 10.9 60.975C10.8 60.6917 10.6583 60.4417 10.475 60.225C10.2917 59.9917 10.0667 59.8083 9.8 59.675C9.53333 59.525 9.23333 59.45 8.9 59.45H4.5ZM3 67C2 67 1.5 66.5 1.5 65.5V51.75C1.5 50.7833 2 50.3 3 50.3H9.375C9.90833 50.3 10.425 50.4083 10.925 50.625C11.425 50.825 11.8583 51.1167 12.225 51.5C12.6083 51.8833 12.9083 52.35 13.125 52.9C13.3583 53.45 13.475 54.075 13.475 54.775C13.475 55.3083 13.3667 55.8667 13.15 56.45C12.95 57.0167 12.5917 57.5083 12.075 57.925C12.375 58.1417 12.6417 58.375 12.875 58.625C13.125 58.8583 13.3333 59.1333 13.5 59.45C13.6667 59.75 13.7917 60.1 13.875 60.5C13.975 60.8833 14.025 61.325 14.025 61.825C14.025 62.675 13.875 63.425 13.575 64.075C13.2917 64.7083 12.9167 65.25 12.45 65.7C11.9833 66.1333 11.4583 66.4583 10.875 66.675C10.2917 66.8917 9.71667 67 9.15 67H3ZM29.8582 67.1C29.3415 67.1 28.9582 66.9917 28.7082 66.775C28.4749 66.5583 28.3582 66.1917 28.3582 65.675V56.6C28.3582 55.6833 28.8582 55.225 29.8582 55.225C30.8415 55.225 31.3332 55.6833 31.3332 56.6V65.675C31.3332 66.1917 31.2082 66.5583 30.9582 66.775C30.7082 66.9917 30.3415 67.1 29.8582 67.1ZM22.9082 59.425C24.3749 59.425 25.4415 59.7667 26.1082 60.45C26.7915 61.1167 27.1332 62.0417 27.1332 63.225C27.1332 64.4083 26.7415 65.3333 25.9582 66C25.1915 66.6667 24.1582 67 22.8582 67H18.1582C17.1582 67 16.6582 66.5167 16.6582 65.55V56.6C16.6582 55.6833 17.1582 55.225 18.1582 55.225C19.1415 55.225 19.6332 55.6833 19.6332 56.6V59.425H22.9082ZM22.9832 64.15C23.2665 64.15 23.5332 64.0833 23.7832 63.95C24.0499 63.8167 24.1832 63.575 24.1832 63.225C24.1832 62.975 24.0915 62.7583 23.9082 62.575C23.7415 62.3917 23.4499 62.3 23.0332 62.3H19.6332V64.15H22.9832ZM38.7021 58.45C38.0188 58.45 37.5355 58.6167 37.2521 58.95C36.9688 59.2833 36.8271 59.7417 36.8271 60.325V62.4C36.8271 62.9333 36.9605 63.3667 37.2271 63.7C37.5105 64.0167 37.9938 64.175 38.6771 64.175H39.9271C40.6105 64.175 41.0855 64.0167 41.3521 63.7C41.6355 63.3667 41.7771 62.9333 41.7771 62.4V60.325C41.7771 59.7417 41.6355 59.2833 41.3521 58.95C41.0688 58.6167 40.5855 58.45 39.9021 58.45H38.7021ZM42.6021 49.4C42.7188 49.3833 42.8521 49.3917 43.0021 49.425C43.1688 49.4417 43.3188 49.5 43.4521 49.6C43.5855 49.6833 43.7021 49.8167 43.8021 50C43.9021 50.1667 43.9521 50.3833 43.9521 50.65C43.9521 50.9333 43.9105 51.1667 43.8271 51.35C43.7438 51.5167 43.6355 51.65 43.5021 51.75C43.3855 51.85 43.2438 51.925 43.0771 51.975C42.9105 52.025 42.7521 52.0583 42.6021 52.075L39.2271 52.55C38.2771 52.6833 37.6355 53.0167 37.3021 53.55C36.9855 54.0667 36.8271 54.7167 36.8271 55.5V56.2C37.1938 55.9667 37.5938 55.8083 38.0271 55.725C38.4771 55.6417 38.8938 55.6 39.2771 55.6H40.3021C41.7021 55.6 42.7938 55.9917 43.5771 56.775C44.3771 57.5417 44.7771 58.6917 44.7771 60.225V62.45C44.7771 63.2167 44.6521 63.8917 44.4021 64.475C44.1688 65.0417 43.8438 65.5167 43.4271 65.9C43.0105 66.2667 42.5188 66.5417 41.9521 66.725C41.4021 66.9083 40.8021 67 40.1521 67H38.4521C37.8021 67 37.1938 66.9083 36.6271 66.725C36.0771 66.5417 35.5938 66.2667 35.1771 65.9C34.7605 65.5167 34.4271 65.0417 34.1771 64.475C33.9438 63.8917 33.8271 63.2167 33.8271 62.45V56.15C33.8271 55.3167 33.9105 54.55 34.0771 53.85C34.2438 53.1333 34.5188 52.5083 34.9021 51.975C35.2855 51.4417 35.7771 51.0083 36.3771 50.675C36.9938 50.325 37.7521 50.0833 38.6521 49.95L42.6021 49.4ZM51.9131 58.05C51.2298 58.05 50.7464 58.2167 50.4631 58.55C50.1798 58.8833 50.0381 59.3417 50.0381 59.925V62.525C50.0381 63.0583 50.1714 63.4917 50.4381 63.825C50.7214 64.1417 51.2048 64.3 51.8881 64.3H53.1381C53.8214 64.3 54.2964 64.1417 54.5631 63.825C54.8464 63.4917 54.9881 63.0583 54.9881 62.525V59.925C54.9881 59.3417 54.8464 58.8833 54.5631 58.55C54.2798 58.2167 53.7964 58.05 53.1131 58.05H51.9131ZM51.6631 67C51.0131 67 50.4048 66.9083 49.8381 66.725C49.2881 66.5417 48.8048 66.2667 48.3881 65.9C47.9714 65.5167 47.6381 65.0417 47.3881 64.475C47.1548 63.8917 47.0381 63.2167 47.0381 62.45V59.975C47.0381 59.2083 47.1548 58.5417 47.3881 57.975C47.6214 57.3917 47.9381 56.9083 48.3381 56.525C48.7548 56.1417 49.2464 55.85 49.8131 55.65C50.3964 55.45 51.0381 55.35 51.7381 55.35H53.2881C53.9881 55.35 54.6214 55.45 55.1881 55.65C55.7714 55.85 56.2631 56.1417 56.6631 56.525C57.0798 56.9083 57.4048 57.3917 57.6381 57.975C57.8714 58.5417 57.9881 59.2083 57.9881 59.975V62.45C57.9881 63.2167 57.8631 63.8917 57.6131 64.475C57.3798 65.0417 57.0548 65.5167 56.6381 65.9C56.2214 66.2667 55.7298 66.5417 55.1631 66.725C54.6131 66.9083 54.0131 67 53.3631 67H51.6631ZM68.4275 59.975C68.4275 59.4417 68.2859 59.0167 68.0025 58.7C67.7359 58.3667 67.2609 58.2 66.5775 58.2H63.3525V64.175H66.5525C67.2359 64.175 67.7192 64.0083 68.0025 63.675C68.2859 63.3417 68.4275 62.8833 68.4275 62.3V59.975ZM66.6275 55.325C67.3109 55.325 67.9442 55.425 68.5275 55.625C69.1275 55.8083 69.6359 56.0917 70.0525 56.475C70.4859 56.8583 70.8192 57.3333 71.0525 57.9C71.3025 58.4667 71.4275 59.125 71.4275 59.875V62.35C71.4275 63.1167 71.3109 63.7917 71.0775 64.375C70.8442 64.9417 70.5192 65.425 70.1025 65.825C69.7025 66.2083 69.2109 66.5 68.6275 66.7C68.0609 66.8833 67.4275 66.975 66.7275 66.975H63.3525V71.175C63.3525 71.4583 63.2275 71.7083 62.9775 71.925C62.7442 72.1583 62.3775 72.275 61.8775 72.275C61.3942 72.275 61.0192 72.1583 60.7525 71.925C60.4859 71.7083 60.3525 71.4583 60.3525 71.175V56.875C60.3525 56.725 60.3775 56.5583 60.4275 56.375C60.4775 56.1917 60.5609 56.025 60.6775 55.875C60.7942 55.7083 60.9442 55.575 61.1275 55.475C61.3109 55.375 61.5359 55.325 61.8025 55.325H66.6275ZM91.5684 58.65C91.3684 59.2 91.1434 59.6583 90.8934 60.025C90.6434 60.375 90.2767 60.6417 89.7934 60.825C90.3767 61.0083 90.8017 61.2917 91.0684 61.675C91.335 62.0583 91.5684 62.5417 91.7684 63.125L92.5934 65.525C92.6267 65.6083 92.6434 65.6833 92.6434 65.75C92.6434 65.8 92.6434 65.8583 92.6434 65.925C92.6434 66.3417 92.485 66.6583 92.1684 66.875C91.8517 67.075 91.4517 67.175 90.9684 67.175C90.735 67.175 90.535 67.1333 90.3684 67.05C90.2184 66.9833 90.0934 66.9 89.9934 66.8C89.8934 66.6833 89.81 66.55 89.7434 66.4C89.6767 66.25 89.6184 66.1 89.5684 65.95L88.8934 63.85C88.66 63.1333 88.36 62.675 87.9934 62.475C87.6434 62.2583 87.1767 62.15 86.5934 62.15H85.0434V65.575C85.0434 66.1083 84.9267 66.5 84.6934 66.75C84.46 67 84.0684 67.125 83.5184 67.125C83.0517 67.125 82.6934 67.0083 82.4434 66.775C82.1934 66.5417 82.0684 66.1583 82.0684 65.625V56.625C82.0684 56.175 82.1767 55.8167 82.3934 55.55C82.61 55.2833 83.0017 55.15 83.5684 55.15C84.1517 55.15 84.5434 55.2833 84.7434 55.55C84.9434 55.8167 85.0434 56.175 85.0434 56.625V59.575H86.5684C87.0684 59.575 87.485 59.475 87.8184 59.275C88.1517 59.0583 88.435 58.6333 88.6684 58L89.2434 56.3C89.31 56.15 89.3767 56.0083 89.4434 55.875C89.51 55.725 89.5934 55.6 89.6934 55.5C89.81 55.3833 89.9434 55.2917 90.0934 55.225C90.26 55.1583 90.46 55.1333 90.6934 55.15C91.1767 55.1667 91.5684 55.2917 91.8684 55.525C92.185 55.7417 92.335 56.0583 92.3184 56.475C92.3017 56.5417 92.2934 56.6083 92.2934 56.675C92.2934 56.725 92.2767 56.7917 92.2434 56.875L91.5684 58.65ZM98.3945 62.25C98.1279 62.25 97.9195 62.3417 97.7695 62.525C97.6195 62.7083 97.5445 62.9083 97.5445 63.125V63.2C97.5445 63.4333 97.6112 63.65 97.7445 63.85C97.8945 64.0333 98.1112 64.125 98.3945 64.125H102.77V62.25H98.3945ZM102.745 59.675V59.475C102.745 59.1417 102.62 58.8333 102.37 58.55C102.136 58.25 101.711 58.1 101.095 58.1H97.6695C97.3862 58.1 97.1112 58.0083 96.8445 57.825C96.5779 57.625 96.4445 57.2833 96.4445 56.8C96.4445 56.3167 96.5779 55.9583 96.8445 55.725C97.1112 55.475 97.3862 55.35 97.6695 55.35H101.245C102.745 55.35 103.87 55.7333 104.62 56.5C105.386 57.25 105.77 58.35 105.77 59.8V65.475C105.77 65.5917 105.745 65.7417 105.695 65.925C105.645 66.0917 105.561 66.2583 105.445 66.425C105.328 66.575 105.178 66.7083 104.995 66.825C104.811 66.9417 104.586 67 104.32 67H97.8945C97.4445 67 97.0112 66.9167 96.5945 66.75C96.1945 66.5667 95.8362 66.3167 95.5195 66C95.2195 65.6667 94.9779 65.275 94.7945 64.825C94.6279 64.375 94.5445 63.8667 94.5445 63.3V63.075C94.5445 62.625 94.6195 62.2 94.7695 61.8C94.9362 61.3833 95.1695 61.025 95.4695 60.725C95.7695 60.4083 96.1362 60.1583 96.5695 59.975C97.0029 59.775 97.5029 59.675 98.0695 59.675H102.745ZM113.902 58.175V65.675C113.902 66.625 113.402 67.1 112.402 67.1C111.402 67.1 110.902 66.625 110.902 65.675V58.175H108.652C108.185 58.175 107.835 58.05 107.602 57.8C107.369 57.55 107.252 57.2 107.252 56.75C107.252 55.7833 107.719 55.3 108.652 55.3H116.152C117.069 55.3 117.527 55.7833 117.527 56.75C117.527 57.2 117.402 57.55 117.152 57.8C116.919 58.05 116.585 58.175 116.152 58.175H113.902ZM126.036 60.05C126.036 59.4833 125.878 59.0417 125.561 58.725C125.244 58.4083 124.769 58.25 124.136 58.25H123.236C122.703 58.25 122.261 58.4083 121.911 58.725C121.578 59.0417 121.411 59.4833 121.411 60.05V60.2H126.036V60.05ZM124.311 55.35C124.978 55.35 125.594 55.4583 126.161 55.675C126.744 55.875 127.244 56.175 127.661 56.575C128.094 56.9583 128.428 57.4417 128.661 58.025C128.911 58.6083 129.036 59.275 129.036 60.025V61C129.036 61.1333 129.011 61.2917 128.961 61.475C128.911 61.6417 128.819 61.8 128.686 61.95C128.569 62.1 128.411 62.2333 128.211 62.35C128.011 62.45 127.753 62.5 127.436 62.5H121.411V62.675C121.411 63.1583 121.586 63.5417 121.936 63.825C122.303 64.1083 122.786 64.25 123.386 64.25H126.711C126.994 64.25 127.269 64.35 127.536 64.55C127.803 64.75 127.936 65.0917 127.936 65.575C127.936 66.025 127.803 66.375 127.536 66.625C127.269 66.875 126.994 67 126.711 67H123.036C122.369 67 121.753 66.9 121.186 66.7C120.619 66.5 120.128 66.2167 119.711 65.85C119.311 65.4667 118.994 65 118.761 64.45C118.528 63.8833 118.411 63.2417 118.411 62.525V60.025C118.411 59.2917 118.528 58.6333 118.761 58.05C119.011 57.4667 119.344 56.975 119.761 56.575C120.178 56.175 120.669 55.875 121.236 55.675C121.819 55.4583 122.453 55.35 123.136 55.35H124.311ZM134.286 65.7C134.286 66.2167 134.161 66.5833 133.911 66.8C133.661 67 133.294 67.1 132.811 67.1C132.294 67.1 131.911 67 131.661 66.8C131.411 66.5833 131.286 66.2167 131.286 65.7V56.75C131.286 55.7833 131.794 55.3 132.811 55.3H139.361C140.311 55.3 140.786 55.7833 140.786 56.75C140.786 57.2 140.669 57.55 140.436 57.8C140.203 58.05 139.844 58.175 139.361 58.175H134.286V65.7ZM146.662 58.05C145.979 58.05 145.495 58.2167 145.212 58.55C144.929 58.8833 144.787 59.3417 144.787 59.925V62.525C144.787 63.0583 144.92 63.4917 145.187 63.825C145.47 64.1417 145.954 64.3 146.637 64.3H147.887C148.57 64.3 149.045 64.1417 149.312 63.825C149.595 63.4917 149.737 63.0583 149.737 62.525V59.925C149.737 59.3417 149.595 58.8833 149.312 58.55C149.029 58.2167 148.545 58.05 147.862 58.05H146.662ZM146.412 67C145.762 67 145.154 66.9083 144.587 66.725C144.037 66.5417 143.554 66.2667 143.137 65.9C142.72 65.5167 142.387 65.0417 142.137 64.475C141.904 63.8917 141.787 63.2167 141.787 62.45V59.975C141.787 59.2083 141.904 58.5417 142.137 57.975C142.37 57.3917 142.687 56.9083 143.087 56.525C143.504 56.1417 143.995 55.85 144.562 55.65C145.145 55.45 145.787 55.35 146.487 55.35H148.037C148.737 55.35 149.37 55.45 149.937 55.65C150.52 55.85 151.012 56.1417 151.412 56.525C151.829 56.9083 152.154 57.3917 152.387 57.975C152.62 58.5417 152.737 59.2083 152.737 59.975V62.45C152.737 63.2167 152.612 63.8917 152.362 64.475C152.129 65.0417 151.804 65.5167 151.387 65.9C150.97 66.2667 150.479 66.5417 149.912 66.725C149.362 66.9083 148.762 67 148.112 67H146.412ZM163.177 59.975C163.177 59.4417 163.035 59.0167 162.752 58.7C162.485 58.3667 162.01 58.2 161.327 58.2H158.102V64.175H161.302C161.985 64.175 162.468 64.0083 162.752 63.675C163.035 63.3417 163.177 62.8833 163.177 62.3V59.975ZM161.377 55.325C162.06 55.325 162.693 55.425 163.277 55.625C163.877 55.8083 164.385 56.0917 164.802 56.475C165.235 56.8583 165.568 57.3333 165.802 57.9C166.052 58.4667 166.177 59.125 166.177 59.875V62.35C166.177 63.1167 166.06 63.7917 165.827 64.375C165.593 64.9417 165.268 65.425 164.852 65.825C164.452 66.2083 163.96 66.5 163.377 66.7C162.81 66.8833 162.177 66.975 161.477 66.975H158.102V71.175C158.102 71.4583 157.977 71.7083 157.727 71.925C157.493 72.1583 157.127 72.275 156.627 72.275C156.143 72.275 155.768 72.1583 155.502 71.925C155.235 71.7083 155.102 71.4583 155.102 71.175V56.875C155.102 56.725 155.127 56.5583 155.177 56.375C155.227 56.1917 155.31 56.025 155.427 55.875C155.543 55.7083 155.693 55.575 155.877 55.475C156.06 55.375 156.285 55.325 156.552 55.325H161.377ZM177.36 67.1C176.793 67.1 176.401 66.9833 176.185 66.75C175.968 66.5167 175.86 66.1333 175.86 65.6V60.425L171.76 66.325C171.626 66.5083 171.501 66.6583 171.385 66.775C171.268 66.875 171.143 66.95 171.01 67C170.876 67.05 170.726 67.075 170.56 67.075C170.41 67.0917 170.226 67.1 170.01 67.1C169.493 67.1 169.118 67.025 168.885 66.875C168.668 66.7083 168.56 66.4 168.56 65.95V56.825C168.56 56.275 168.668 55.8667 168.885 55.6C169.118 55.3333 169.51 55.2 170.06 55.2C170.643 55.2 171.035 55.325 171.235 55.575C171.451 55.825 171.56 56.2417 171.56 56.825V62.45L175.885 56.025C176.101 55.6917 176.335 55.475 176.585 55.375C176.835 55.275 177.151 55.225 177.535 55.225C177.951 55.225 178.268 55.3 178.485 55.45C178.718 55.5833 178.835 55.8917 178.835 56.375V65.6C178.835 66.05 178.735 66.4167 178.535 66.7C178.335 66.9667 177.943 67.1 177.36 67.1ZM190.134 67.1C189.567 67.1 189.176 66.9833 188.959 66.75C188.742 66.5167 188.634 66.1333 188.634 65.6V60.425L184.534 66.325C184.401 66.5083 184.276 66.6583 184.159 66.775C184.042 66.875 183.917 66.95 183.784 67C183.651 67.05 183.501 67.075 183.334 67.075C183.184 67.0917 183.001 67.1 182.784 67.1C182.267 67.1 181.892 67.025 181.659 66.875C181.442 66.7083 181.334 66.4 181.334 65.95V56.825C181.334 56.275 181.442 55.8667 181.659 55.6C181.892 55.3333 182.284 55.2 182.834 55.2C183.417 55.2 183.809 55.325 184.009 55.575C184.226 55.825 184.334 56.2417 184.334 56.825V62.45L188.659 56.025C188.876 55.6917 189.109 55.475 189.359 55.375C189.609 55.275 189.926 55.225 190.309 55.225C190.726 55.225 191.042 55.3 191.259 55.45C191.492 55.5833 191.609 55.8917 191.609 56.375V65.6C191.609 66.05 191.509 66.4167 191.309 66.7C191.109 66.9667 190.717 67.1 190.134 67.1ZM6 88.45C5.31667 88.45 4.83333 88.6167 4.55 88.95C4.26667 89.2833 4.125 89.7417 4.125 90.325V92.4C4.125 92.9333 4.25833 93.3667 4.525 93.7C4.80833 94.0167 5.29167 94.175 5.975 94.175H7.225C7.90833 94.175 8.38333 94.0167 8.65 93.7C8.93333 93.3667 9.075 92.9333 9.075 92.4V90.325C9.075 89.7417 8.93333 89.2833 8.65 88.95C8.36667 88.6167 7.88333 88.45 7.2 88.45H6ZM9.9 79.4C10.0167 79.3833 10.15 79.3917 10.3 79.425C10.4667 79.4417 10.6167 79.5 10.75 79.6C10.8833 79.6833 11 79.8167 11.1 80C11.2 80.1667 11.25 80.3833 11.25 80.65C11.25 80.9333 11.2083 81.1667 11.125 81.35C11.0417 81.5167 10.9333 81.65 10.8 81.75C10.6833 81.85 10.5417 81.925 10.375 81.975C10.2083 82.025 10.05 82.0583 9.9 82.075L6.525 82.55C5.575 82.6833 4.93333 83.0167 4.6 83.55C4.28333 84.0667 4.125 84.7167 4.125 85.5V86.2C4.49167 85.9667 4.89167 85.8083 5.325 85.725C5.775 85.6417 6.19167 85.6 6.575 85.6H7.6C9 85.6 10.0917 85.9917 10.875 86.775C11.675 87.5417 12.075 88.6917 12.075 90.225V92.45C12.075 93.2167 11.95 93.8917 11.7 94.475C11.4667 95.0417 11.1417 95.5167 10.725 95.9C10.3083 96.2667 9.81667 96.5417 9.25 96.725C8.7 96.9083 8.1 97 7.45 97H5.75C5.1 97 4.49167 96.9083 3.925 96.725C3.375 96.5417 2.89167 96.2667 2.475 95.9C2.05833 95.5167 1.725 95.0417 1.475 94.475C1.24167 93.8917 1.125 93.2167 1.125 92.45V86.15C1.125 85.3167 1.20833 84.55 1.375 83.85C1.54167 83.1333 1.81667 82.5083 2.2 81.975C2.58333 81.4417 3.075 81.0083 3.675 80.675C4.29167 80.325 5.05 80.0833 5.95 79.95L9.9 79.4ZM23.2609 97.1C22.6943 97.1 22.3026 96.9833 22.0859 96.75C21.8693 96.5167 21.7609 96.1333 21.7609 95.6V90.425L17.6609 96.325C17.5276 96.5083 17.4026 96.6583 17.2859 96.775C17.1693 96.875 17.0443 96.95 16.9109 97C16.7776 97.05 16.6276 97.075 16.4609 97.075C16.3109 97.0917 16.1276 97.1 15.9109 97.1C15.3943 97.1 15.0193 97.025 14.7859 96.875C14.5693 96.7083 14.4609 96.4 14.4609 95.95V86.825C14.4609 86.275 14.5693 85.8667 14.7859 85.6C15.0193 85.3333 15.4109 85.2 15.9609 85.2C16.5443 85.2 16.9359 85.325 17.1359 85.575C17.3526 85.825 17.4609 86.2417 17.4609 86.825V92.45L21.7859 86.025C22.0026 85.6917 22.2359 85.475 22.4859 85.375C22.7359 85.275 23.0526 85.225 23.4359 85.225C23.8526 85.225 24.1693 85.3 24.3859 85.45C24.6193 85.5833 24.7359 85.8917 24.7359 86.375V95.6C24.7359 96.05 24.6359 96.4167 24.4359 96.7C24.2359 96.9667 23.8443 97.1 23.2609 97.1ZM36.5354 97.1C36.052 97.1 35.6937 96.9917 35.4604 96.775C35.2437 96.5583 35.1354 96.1917 35.1354 95.675V88.15H31.9854L31.5354 93.225C31.4854 93.625 31.4104 94.05 31.3104 94.5C31.227 94.95 31.0604 95.375 30.8104 95.775C30.577 96.1583 30.2437 96.4833 29.8104 96.75C29.377 97 28.802 97.125 28.0854 97.125H27.6854C26.7687 97.125 26.3104 96.6917 26.3104 95.825C26.3104 95.4083 26.427 95.0833 26.6604 94.85C26.8937 94.6 27.202 94.475 27.5854 94.475H27.8854C28.152 94.475 28.352 94.3833 28.4854 94.2C28.6187 94.0167 28.7104 93.7083 28.7604 93.275L29.3604 86.725C29.4104 86.2083 29.5354 85.8417 29.7354 85.625C29.952 85.4083 30.327 85.3 30.8604 85.3H36.5854C37.1187 85.3 37.502 85.4167 37.7354 85.65C37.9687 85.8667 38.0854 86.2167 38.0854 86.7V95.675C38.0854 96.1917 37.9604 96.5583 37.7104 96.775C37.4604 96.9917 37.0687 97.1 36.5354 97.1ZM48.0957 90.05C48.0957 89.4833 47.9374 89.0417 47.6207 88.725C47.304 88.4083 46.829 88.25 46.1957 88.25H45.2957C44.7624 88.25 44.3207 88.4083 43.9707 88.725C43.6374 89.0417 43.4707 89.4833 43.4707 90.05V90.2H48.0957V90.05ZM46.3707 85.35C47.0374 85.35 47.654 85.4583 48.2207 85.675C48.804 85.875 49.304 86.175 49.7207 86.575C50.154 86.9583 50.4874 87.4417 50.7207 88.025C50.9707 88.6083 51.0957 89.275 51.0957 90.025V91C51.0957 91.1333 51.0707 91.2917 51.0207 91.475C50.9707 91.6417 50.879 91.8 50.7457 91.95C50.629 92.1 50.4707 92.2333 50.2707 92.35C50.0707 92.45 49.8124 92.5 49.4957 92.5H43.4707V92.675C43.4707 93.1583 43.6457 93.5417 43.9957 93.825C44.3624 94.1083 44.8457 94.25 45.4457 94.25H48.7707C49.054 94.25 49.329 94.35 49.5957 94.55C49.8624 94.75 49.9957 95.0917 49.9957 95.575C49.9957 96.025 49.8624 96.375 49.5957 96.625C49.329 96.875 49.054 97 48.7707 97H45.0957C44.429 97 43.8124 96.9 43.2457 96.7C42.679 96.5 42.1874 96.2167 41.7707 95.85C41.3707 95.4667 41.054 95 40.8207 94.45C40.5874 93.8833 40.4707 93.2417 40.4707 92.525V90.025C40.4707 89.2917 40.5874 88.6333 40.8207 88.05C41.0707 87.4667 41.404 86.975 41.8207 86.575C42.2374 86.175 42.729 85.875 43.2957 85.675C43.879 85.4583 44.5124 85.35 45.1957 85.35H46.3707ZM58.9957 88.175V95.675C58.9957 96.625 58.4957 97.1 57.4957 97.1C56.4957 97.1 55.9957 96.625 55.9957 95.675V88.175H53.7457C53.279 88.175 52.929 88.05 52.6957 87.8C52.4624 87.55 52.3457 87.2 52.3457 86.75C52.3457 85.7833 52.8124 85.3 53.7457 85.3H61.2457C62.1624 85.3 62.6207 85.7833 62.6207 86.75C62.6207 87.2 62.4957 87.55 62.2457 87.8C62.0124 88.05 61.679 88.175 61.2457 88.175H58.9957ZM65.9854 92.25C65.7187 92.25 65.5104 92.3417 65.3604 92.525C65.2104 92.7083 65.1354 92.9083 65.1354 93.125V93.2C65.1354 93.4333 65.202 93.65 65.3354 93.85C65.4854 94.0333 65.702 94.125 65.9854 94.125H70.3604V92.25H65.9854ZM70.3354 89.675V89.475C70.3354 89.1417 70.2104 88.8333 69.9604 88.55C69.727 88.25 69.302 88.1 68.6854 88.1H65.2604C64.977 88.1 64.702 88.0083 64.4354 87.825C64.1687 87.625 64.0354 87.2833 64.0354 86.8C64.0354 86.3167 64.1687 85.9583 64.4354 85.725C64.702 85.475 64.977 85.35 65.2604 85.35H68.8354C70.3354 85.35 71.4604 85.7333 72.2104 86.5C72.977 87.25 73.3604 88.35 73.3604 89.8V95.475C73.3604 95.5917 73.3354 95.7417 73.2854 95.925C73.2354 96.0917 73.152 96.2583 73.0354 96.425C72.9187 96.575 72.7687 96.7083 72.5854 96.825C72.402 96.9417 72.177 97 71.9104 97H65.4854C65.0354 97 64.602 96.9167 64.1854 96.75C63.7854 96.5667 63.427 96.3167 63.1104 96C62.8104 95.6667 62.5687 95.275 62.3854 94.825C62.2187 94.375 62.1354 93.8667 62.1354 93.3V93.075C62.1354 92.625 62.2104 92.2 62.3604 91.8C62.527 91.3833 62.7604 91.025 63.0604 90.725C63.3604 90.4083 63.727 90.1583 64.1604 89.975C64.5937 89.775 65.0937 89.675 65.6604 89.675H70.3354Z" fill="#272727"></path><path d="M569.906 67.05C569.539 67.05 569.281 66.9833 569.131 66.85C568.981 66.7 568.906 66.4417 568.906 66.075V52.325H561.706V66.075C561.706 66.4417 561.631 66.7 561.481 66.85C561.331 66.9833 561.073 67.05 560.706 67.05C560.339 67.05 560.073 66.975 559.906 66.825C559.756 66.675 559.681 66.425 559.681 66.075V51.3C559.681 50.95 559.756 50.7 559.906 50.55C560.073 50.4 560.339 50.325 560.706 50.325H569.906C570.273 50.325 570.531 50.4 570.681 50.55C570.848 50.7 570.931 50.95 570.931 51.3V66.075C570.931 66.425 570.848 66.675 570.681 66.825C570.531 66.975 570.273 67.05 569.906 67.05ZM578.214 57.35C577.497 57.35 576.905 57.5583 576.439 57.975C575.989 58.375 575.764 59 575.764 59.85V62.7C575.764 63.5167 575.989 64.125 576.439 64.525C576.905 64.9083 577.497 65.1 578.214 65.1H579.339C580.039 65.1 580.622 64.9083 581.089 64.525C581.572 64.125 581.814 63.5167 581.814 62.7V59.85C581.814 58.9833 581.58 58.35 581.114 57.95C580.647 57.55 580.055 57.35 579.339 57.35H578.214ZM578.089 67C577.489 67 576.922 66.9083 576.389 66.725C575.872 66.5417 575.414 66.275 575.014 65.925C574.614 65.5583 574.297 65.1083 574.064 64.575C573.83 64.025 573.714 63.3917 573.714 62.675V59.85C573.714 59.1333 573.822 58.5083 574.039 57.975C574.272 57.425 574.589 56.9667 574.989 56.6C575.389 56.2167 575.864 55.9333 576.414 55.75C576.98 55.55 577.597 55.45 578.264 55.45H579.389C580.039 55.45 580.639 55.5417 581.189 55.725C581.739 55.9083 582.205 56.1917 582.589 56.575C582.989 56.9417 583.297 57.4 583.514 57.95C583.747 58.5 583.864 59.1333 583.864 59.85V62.675C583.864 63.3917 583.747 64.025 583.514 64.575C583.28 65.1083 582.955 65.5583 582.539 65.925C582.139 66.275 581.664 66.5417 581.114 66.725C580.58 66.9083 580.014 67 579.414 67H578.089ZM596.218 65.875C596.235 65.9417 596.243 66.0333 596.243 66.15C596.243 66.4833 596.127 66.725 595.893 66.875C595.677 67.025 595.41 67.1 595.093 67.1C594.893 67.1 594.727 67.0667 594.593 67C594.477 66.9333 594.377 66.8417 594.293 66.725C594.227 66.6083 594.16 66.475 594.093 66.325C594.043 66.1583 593.993 65.9917 593.943 65.825L593.193 63.525C592.993 62.8417 592.727 62.3917 592.393 62.175C592.077 61.9583 591.643 61.85 591.093 61.85H588.568V66C588.568 66.3833 588.485 66.6667 588.318 66.85C588.152 67.0167 587.877 67.1 587.493 67.1C587.16 67.1 586.893 67.0167 586.693 66.85C586.51 66.6833 586.418 66.4083 586.418 66.025V56.875C586.418 56.4083 586.477 56.0333 586.593 55.75C586.727 55.4667 587.035 55.325 587.518 55.325C587.902 55.325 588.168 55.4167 588.318 55.6C588.485 55.7833 588.568 56.0667 588.568 56.45V59.975H590.993C591.477 59.975 591.877 59.875 592.193 59.675C592.527 59.4583 592.802 59.0417 593.018 58.425L593.668 56.525C593.752 56.2583 593.86 56 593.993 55.75C594.143 55.4833 594.41 55.35 594.793 55.35C595.127 55.35 595.393 55.4333 595.593 55.6C595.81 55.7667 595.918 55.9917 595.918 56.275C595.918 56.3583 595.902 56.4583 595.868 56.575C595.852 56.6917 595.818 56.8083 595.768 56.925L595.118 58.75C594.935 59.2333 594.735 59.6583 594.518 60.025C594.302 60.3917 593.985 60.6667 593.568 60.85C594.085 61.0333 594.452 61.325 594.668 61.725C594.902 62.125 595.102 62.5667 595.268 63.05L596.218 65.875ZM608.56 67.775C608.56 68.5083 608.444 69.1417 608.21 69.675C607.977 70.2083 607.652 70.6583 607.235 71.025C606.835 71.3917 606.36 71.6583 605.81 71.825C605.26 72.0083 604.669 72.1 604.035 72.1H600.36C600.177 72.1 599.994 72.0167 599.81 71.85C599.644 71.6833 599.56 71.425 599.56 71.075C599.56 70.7417 599.644 70.5 599.81 70.35C599.994 70.2167 600.185 70.15 600.385 70.15H604.01C604.71 70.15 605.302 69.95 605.785 69.55C606.269 69.1667 606.51 68.5583 606.51 67.725V67H602.86C602.21 67 601.61 66.9083 601.06 66.725C600.51 66.5417 600.035 66.2667 599.635 65.9C599.235 65.5333 598.919 65.075 598.685 64.525C598.469 63.975 598.36 63.3333 598.36 62.6V56.125C598.36 55.9083 598.435 55.7167 598.585 55.55C598.752 55.3833 599.01 55.3 599.36 55.3C599.694 55.3 599.952 55.3917 600.135 55.575C600.319 55.7417 600.41 55.925 600.41 56.125V62.6C600.41 63.0333 600.477 63.4083 600.61 63.725C600.76 64.025 600.952 64.275 601.185 64.475C601.419 64.6583 601.685 64.7917 601.985 64.875C602.285 64.9583 602.602 65 602.935 65H606.51V56.125C606.51 55.925 606.594 55.7417 606.76 55.575C606.927 55.3917 607.185 55.3 607.535 55.3C607.869 55.3 608.119 55.3833 608.285 55.55C608.469 55.7167 608.56 55.9083 608.56 56.125V67.775ZM620.482 67.05C620.132 67.05 619.874 66.9667 619.707 66.8C619.557 66.6333 619.482 66.4583 619.482 66.275V57.45H613.382V66.275C613.382 66.4417 613.299 66.6167 613.132 66.8C612.982 66.9667 612.724 67.05 612.357 67.05C612.024 67.05 611.766 66.9667 611.582 66.8C611.416 66.6167 611.332 66.4333 611.332 66.25V56.575C611.332 56.3583 611.407 56.1167 611.557 55.85C611.724 55.5833 612.024 55.45 612.457 55.45H620.382C620.816 55.45 621.107 55.5833 621.257 55.85C621.424 56.1167 621.507 56.3583 621.507 56.575V66.275C621.507 66.4417 621.424 66.6167 621.257 66.8C621.107 66.9667 620.849 67.05 620.482 67.05ZM634.029 65.875C634.046 65.9417 634.054 66.0333 634.054 66.15C634.054 66.4833 633.937 66.725 633.704 66.875C633.487 67.025 633.221 67.1 632.904 67.1C632.704 67.1 632.537 67.0667 632.404 67C632.287 66.9333 632.187 66.8417 632.104 66.725C632.037 66.6083 631.971 66.475 631.904 66.325C631.854 66.1583 631.804 65.9917 631.754 65.825L631.004 63.525C630.804 62.8417 630.537 62.3917 630.204 62.175C629.887 61.9583 629.454 61.85 628.904 61.85H626.379V66C626.379 66.3833 626.296 66.6667 626.129 66.85C625.962 67.0167 625.687 67.1 625.304 67.1C624.971 67.1 624.704 67.0167 624.504 66.85C624.321 66.6833 624.229 66.4083 624.229 66.025V56.875C624.229 56.4083 624.287 56.0333 624.404 55.75C624.537 55.4667 624.846 55.325 625.329 55.325C625.712 55.325 625.979 55.4167 626.129 55.6C626.296 55.7833 626.379 56.0667 626.379 56.45V59.975H628.804C629.287 59.975 629.687 59.875 630.004 59.675C630.337 59.4583 630.612 59.0417 630.829 58.425L631.479 56.525C631.562 56.2583 631.671 56 631.804 55.75C631.954 55.4833 632.221 55.35 632.604 55.35C632.937 55.35 633.204 55.4333 633.404 55.6C633.621 55.7667 633.729 55.9917 633.729 56.275C633.729 56.3583 633.712 56.4583 633.679 56.575C633.662 56.6917 633.629 56.8083 633.579 56.925L632.929 58.75C632.746 59.2333 632.546 59.6583 632.329 60.025C632.112 60.3917 631.796 60.6667 631.379 60.85C631.896 61.0333 632.262 61.325 632.479 61.725C632.712 62.125 632.912 62.5667 633.079 63.05L634.029 65.875ZM646.396 65.9C646.396 66.15 646.313 66.4 646.146 66.65C645.979 66.8833 645.738 67 645.421 67H639.121C638.688 67 638.279 66.925 637.896 66.775C637.529 66.6083 637.204 66.375 636.921 66.075C636.638 65.775 636.413 65.4167 636.246 65C636.079 64.5833 635.996 64.1083 635.996 63.575V63.275C635.996 62.875 636.063 62.4833 636.196 62.1C636.346 61.7 636.563 61.35 636.846 61.05C637.129 60.7333 637.471 60.4833 637.871 60.3C638.288 60.1167 638.771 60.025 639.321 60.025H644.346V59.6C644.346 58.9667 644.146 58.4417 643.746 58.025C643.363 57.6083 642.779 57.4 641.996 57.4H638.646C638.463 57.4 638.279 57.3333 638.096 57.2C637.929 57.0667 637.846 56.8333 637.846 56.5C637.846 56.15 637.929 55.8917 638.096 55.725C638.279 55.5583 638.463 55.475 638.646 55.475H642.071C643.488 55.475 644.563 55.8417 645.296 56.575C646.029 57.3083 646.396 58.3667 646.396 59.75V65.9ZM639.846 61.875C639.396 61.875 638.979 61.9833 638.596 62.2C638.229 62.4167 638.046 62.7917 638.046 63.325V63.5C638.046 64.0333 638.221 64.425 638.571 64.675C638.921 64.9083 639.338 65.025 639.821 65.025H644.346V61.875H639.846ZM572.991 87.475C572.274 87.475 571.674 87.6667 571.191 88.05C570.707 88.4333 570.466 89.05 570.466 89.9V92.65C570.466 93.5 570.682 94.125 571.116 94.525C571.549 94.9083 572.166 95.1 572.966 95.1H574.091C574.807 95.1 575.399 94.9083 575.866 94.525C576.349 94.125 576.591 93.5 576.591 92.65V90C576.591 89.1333 576.374 88.5 575.941 88.1C575.507 87.6833 574.891 87.475 574.091 87.475H572.991ZM576.591 79.625C576.774 79.6083 576.966 79.6667 577.166 79.8C577.366 79.9333 577.466 80.1833 577.466 80.55C577.466 80.9333 577.374 81.1833 577.191 81.3C577.024 81.4 576.849 81.4583 576.666 81.475L573.441 81.85C572.841 81.9167 572.341 82.0667 571.941 82.3C571.557 82.5167 571.257 82.7917 571.041 83.125C570.824 83.4417 570.674 83.8083 570.591 84.225C570.507 84.6417 570.466 85.0833 570.466 85.55V86.5C570.799 86.2 571.224 85.9667 571.741 85.8C572.257 85.6333 572.774 85.55 573.291 85.55H574.316C575.732 85.55 576.791 85.925 577.491 86.675C578.207 87.425 578.566 88.5167 578.566 89.95V92.675C578.566 93.3917 578.441 94.025 578.191 94.575C577.957 95.1083 577.641 95.5583 577.241 95.925C576.841 96.275 576.374 96.5417 575.841 96.725C575.307 96.9083 574.749 97 574.166 97H572.841C572.224 97 571.649 96.9167 571.116 96.75C570.582 96.5833 570.116 96.325 569.716 95.975C569.332 95.625 569.024 95.175 568.791 94.625C568.574 94.075 568.466 93.425 568.466 92.675V85.825C568.466 85.1083 568.541 84.425 568.691 83.775C568.857 83.125 569.124 82.55 569.491 82.05C569.857 81.5333 570.324 81.1 570.891 80.75C571.474 80.4 572.182 80.1667 573.016 80.05L576.591 79.625ZM589.896 97.1C589.529 97.1 589.271 97.025 589.121 96.875C588.971 96.7083 588.896 96.4417 588.896 96.075V88.9L583.221 96.625C583.054 96.8417 582.887 96.975 582.721 97.025C582.554 97.075 582.354 97.1 582.121 97.1C581.771 97.1 581.521 97.05 581.371 96.95C581.221 96.85 581.146 96.6333 581.146 96.3V86.45C581.146 86.0667 581.212 85.7917 581.346 85.625C581.496 85.4583 581.762 85.375 582.146 85.375C582.529 85.375 582.787 85.4583 582.921 85.625C583.071 85.775 583.146 86.05 583.146 86.45V93.925L588.896 85.9C589.029 85.7167 589.171 85.5917 589.321 85.525C589.471 85.4417 589.687 85.4 589.971 85.4C590.287 85.4 590.512 85.45 590.646 85.55C590.796 85.65 590.871 85.85 590.871 86.15V96.075C590.871 96.425 590.804 96.6833 590.671 96.85C590.537 97.0167 590.279 97.1 589.896 97.1ZM602.552 97.05C602.185 97.05 601.919 96.975 601.752 96.825C601.602 96.6583 601.527 96.3833 601.527 96V87.525H597.477L596.927 93.4C596.877 93.8333 596.802 94.275 596.702 94.725C596.619 95.175 596.46 95.5833 596.227 95.95C596.01 96.3 595.702 96.5917 595.302 96.825C594.919 97.0583 594.419 97.175 593.802 97.175H593.527C593.244 97.175 593.019 97.1 592.852 96.95C592.685 96.8 592.602 96.5583 592.602 96.225C592.602 95.9083 592.685 95.675 592.852 95.525C593.035 95.3583 593.244 95.275 593.477 95.275H593.677C594.11 95.275 594.41 95.1 594.577 94.75C594.744 94.4 594.869 93.8833 594.952 93.2L595.577 86.475C595.61 86.0917 595.702 85.825 595.852 85.675C596.002 85.5083 596.269 85.425 596.652 85.425H602.577C602.96 85.425 603.235 85.5083 603.402 85.675C603.569 85.825 603.652 86.0917 603.652 86.475V96C603.652 96.3833 603.56 96.6583 603.377 96.825C603.21 96.975 602.935 97.05 602.552 97.05ZM608.227 92.25V92.775C608.227 93.4917 608.46 94.0583 608.927 94.475C609.394 94.875 609.994 95.075 610.727 95.075H614.227C614.427 95.075 614.61 95.1417 614.777 95.275C614.96 95.4083 615.052 95.65 615.052 96C615.052 96.3333 614.96 96.5833 614.777 96.75C614.594 96.9167 614.41 97 614.227 97H610.577C609.944 97 609.36 96.9083 608.827 96.725C608.294 96.525 607.827 96.25 607.427 95.9C607.044 95.5333 606.735 95.0833 606.502 94.55C606.285 94.0167 606.177 93.4 606.177 92.7V89.9C606.177 89.2 606.294 88.575 606.527 88.025C606.777 87.4583 607.102 86.9917 607.502 86.625C607.919 86.2417 608.402 85.95 608.952 85.75C609.519 85.55 610.127 85.45 610.777 85.45H611.652C612.252 85.45 612.819 85.55 613.352 85.75C613.885 85.9333 614.352 86.2167 614.752 86.6C615.169 86.9667 615.494 87.4333 615.727 88C615.977 88.55 616.102 89.1833 616.102 89.9V91.15C616.102 91.3667 616.019 91.6083 615.852 91.875C615.702 92.125 615.41 92.25 614.977 92.25H608.227ZM614.052 89.9C614.052 89.05 613.81 88.4333 613.327 88.05C612.844 87.6667 612.252 87.475 611.552 87.475H610.677C610.027 87.475 609.452 87.675 608.952 88.075C608.469 88.4583 608.227 89.0667 608.227 89.9V90.55H614.052V89.9ZM623.441 87.425V96.1C623.441 96.7667 623.108 97.1 622.441 97.1C622.074 97.1 621.816 97.025 621.666 96.875C621.516 96.725 621.441 96.4667 621.441 96.1V87.425H618.416C617.799 87.425 617.491 87.1 617.491 86.45C617.491 85.7667 617.799 85.425 618.416 85.425H626.466C627.099 85.425 627.416 85.7667 627.416 86.45C627.416 87.1 627.099 87.425 626.466 87.425H623.441ZM637.436 95.9C637.436 96.15 637.353 96.4 637.186 96.65C637.019 96.8833 636.778 97 636.461 97H630.161C629.728 97 629.319 96.925 628.936 96.775C628.569 96.6083 628.244 96.375 627.961 96.075C627.678 95.775 627.453 95.4167 627.286 95C627.119 94.5833 627.036 94.1083 627.036 93.575V93.275C627.036 92.875 627.103 92.4833 627.236 92.1C627.386 91.7 627.603 91.35 627.886 91.05C628.169 90.7333 628.511 90.4833 628.911 90.3C629.328 90.1167 629.811 90.025 630.361 90.025H635.386V89.6C635.386 88.9667 635.186 88.4417 634.786 88.025C634.403 87.6083 633.819 87.4 633.036 87.4H629.686C629.503 87.4 629.319 87.3333 629.136 87.2C628.969 87.0667 628.886 86.8333 628.886 86.5C628.886 86.15 628.969 85.8917 629.136 85.725C629.319 85.5583 629.503 85.475 629.686 85.475H633.111C634.528 85.475 635.603 85.8417 636.336 86.575C637.069 87.3083 637.436 88.3667 637.436 89.75V95.9ZM630.886 91.875C630.436 91.875 630.019 91.9833 629.636 92.2C629.269 92.4167 629.086 92.7917 629.086 93.325V93.5C629.086 94.0333 629.261 94.425 629.611 94.675C629.961 94.9083 630.378 95.025 630.861 95.025H635.386V91.875H630.886Z" fill="#272727"></path><path d="M1139.43 52.325V57.025H1144.53C1145.06 57.025 1145.52 56.8083 1145.9 56.375C1146.3 55.9417 1146.5 55.35 1146.5 54.6C1146.5 53.8833 1146.3 53.325 1145.88 52.925C1145.48 52.525 1144.95 52.325 1144.28 52.325H1139.43ZM1139.43 59V65H1144.6C1144.92 65 1145.23 64.9417 1145.53 64.825C1145.83 64.7083 1146.1 64.5333 1146.33 64.3C1146.56 64.05 1146.75 63.7417 1146.88 63.375C1147.01 62.9917 1147.08 62.5333 1147.08 62C1147.08 61.6833 1147.02 61.35 1146.9 61C1146.8 60.6333 1146.64 60.3083 1146.4 60.025C1146.19 59.725 1145.91 59.4833 1145.58 59.3C1145.25 59.1 1144.85 59 1144.4 59H1139.43ZM1138.4 67C1137.72 67 1137.38 66.65 1137.38 65.95V51.325C1137.38 50.6583 1137.72 50.325 1138.4 50.325H1144.63C1145.16 50.325 1145.66 50.425 1146.13 50.625C1146.61 50.8083 1147.04 51.0833 1147.4 51.45C1147.77 51.8167 1148.05 52.2667 1148.25 52.8C1148.47 53.3167 1148.58 53.9083 1148.58 54.575C1148.58 55.1417 1148.45 55.75 1148.18 56.4C1147.93 57.05 1147.5 57.5667 1146.88 57.95C1147.55 58.3333 1148.08 58.8417 1148.48 59.475C1148.9 60.0917 1149.1 60.9417 1149.1 62.025C1149.1 62.8583 1148.97 63.5833 1148.7 64.2C1148.45 64.8167 1148.11 65.3333 1147.68 65.75C1147.26 66.1667 1146.78 66.4833 1146.23 66.7C1145.7 66.9 1145.15 67 1144.58 67H1138.4ZM1164.01 67.1C1163.31 67.1 1162.96 66.7667 1162.96 66.1V56.375C1162.96 55.7083 1163.31 55.375 1164.01 55.375C1164.34 55.375 1164.58 55.45 1164.73 55.6C1164.9 55.75 1164.98 56.0083 1164.98 56.375V66.1C1164.98 66.4833 1164.9 66.75 1164.73 66.9C1164.58 67.0333 1164.34 67.1 1164.01 67.1ZM1157.58 59.875C1158.88 59.875 1159.88 60.175 1160.58 60.775C1161.3 61.375 1161.66 62.2583 1161.66 63.425C1161.66 64.525 1161.3 65.4 1160.58 66.05C1159.87 66.6833 1158.83 67 1157.48 67H1152.83C1152.47 67 1152.21 66.9167 1152.06 66.75C1151.91 66.5667 1151.83 66.3083 1151.83 65.975V56.35C1151.83 56.0167 1151.91 55.775 1152.06 55.625C1152.21 55.4583 1152.47 55.375 1152.83 55.375C1153.2 55.375 1153.46 55.45 1153.61 55.6C1153.77 55.7333 1153.86 55.9833 1153.86 56.35V59.875H1157.58ZM1157.71 65C1158.27 65 1158.74 64.875 1159.11 64.625C1159.47 64.375 1159.66 63.975 1159.66 63.425C1159.66 62.9917 1159.51 62.6167 1159.21 62.3C1158.91 61.9833 1158.44 61.825 1157.81 61.825H1153.86V65H1157.71ZM1171.86 57.475C1171.15 57.475 1170.55 57.6667 1170.06 58.05C1169.58 58.4333 1169.34 59.05 1169.34 59.9V62.65C1169.34 63.5 1169.56 64.125 1169.99 64.525C1170.42 64.9083 1171.04 65.1 1171.84 65.1H1172.96C1173.68 65.1 1174.27 64.9083 1174.74 64.525C1175.22 64.125 1175.46 63.5 1175.46 62.65V60C1175.46 59.1333 1175.25 58.5 1174.81 58.1C1174.38 57.6833 1173.76 57.475 1172.96 57.475H1171.86ZM1175.46 49.625C1175.65 49.6083 1175.84 49.6667 1176.04 49.8C1176.24 49.9333 1176.34 50.1833 1176.34 50.55C1176.34 50.9333 1176.25 51.1833 1176.06 51.3C1175.9 51.4 1175.72 51.4583 1175.54 51.475L1172.31 51.85C1171.71 51.9167 1171.21 52.0667 1170.81 52.3C1170.43 52.5167 1170.13 52.7917 1169.91 53.125C1169.7 53.4417 1169.55 53.8083 1169.46 54.225C1169.38 54.6417 1169.34 55.0833 1169.34 55.55V56.5C1169.67 56.2 1170.1 55.9667 1170.61 55.8C1171.13 55.6333 1171.65 55.55 1172.16 55.55H1173.19C1174.61 55.55 1175.66 55.925 1176.36 56.675C1177.08 57.425 1177.44 58.5167 1177.44 59.95V62.675C1177.44 63.3917 1177.31 64.025 1177.06 64.575C1176.83 65.1083 1176.51 65.5583 1176.11 65.925C1175.71 66.275 1175.25 66.5417 1174.71 66.725C1174.18 66.9083 1173.62 67 1173.04 67H1171.71C1171.1 67 1170.52 66.9167 1169.99 66.75C1169.46 66.5833 1168.99 66.325 1168.59 65.975C1168.21 65.625 1167.9 65.175 1167.66 64.625C1167.45 64.075 1167.34 63.425 1167.34 62.675V55.825C1167.34 55.1083 1167.41 54.425 1167.56 53.775C1167.73 53.125 1168 52.55 1168.36 52.05C1168.73 51.5333 1169.2 51.1 1169.76 50.75C1170.35 50.4 1171.06 50.1667 1171.89 50.05L1175.46 49.625ZM1184.34 57.35C1183.63 57.35 1183.04 57.5583 1182.57 57.975C1182.12 58.375 1181.89 59 1181.89 59.85V62.7C1181.89 63.5167 1182.12 64.125 1182.57 64.525C1183.04 64.9083 1183.63 65.1 1184.34 65.1H1185.47C1186.17 65.1 1186.75 64.9083 1187.22 64.525C1187.7 64.125 1187.94 63.5167 1187.94 62.7V59.85C1187.94 58.9833 1187.71 58.35 1187.24 57.95C1186.78 57.55 1186.19 57.35 1185.47 57.35H1184.34ZM1184.22 67C1183.62 67 1183.05 66.9083 1182.52 66.725C1182 66.5417 1181.54 66.275 1181.14 65.925C1180.74 65.5583 1180.43 65.1083 1180.19 64.575C1179.96 64.025 1179.84 63.3917 1179.84 62.675V59.85C1179.84 59.1333 1179.95 58.5083 1180.17 57.975C1180.4 57.425 1180.72 56.9667 1181.12 56.6C1181.52 56.2167 1181.99 55.9333 1182.54 55.75C1183.11 55.55 1183.73 55.45 1184.39 55.45H1185.52C1186.17 55.45 1186.77 55.5417 1187.32 55.725C1187.87 55.9083 1188.34 56.1917 1188.72 56.575C1189.12 56.9417 1189.43 57.4 1189.64 57.95C1189.88 58.5 1189.99 59.1333 1189.99 59.85V62.675C1189.99 63.3917 1189.88 64.025 1189.64 64.575C1189.41 65.1083 1189.09 65.5583 1188.67 65.925C1188.27 66.275 1187.79 66.5417 1187.24 66.725C1186.71 66.9083 1186.14 67 1185.54 67H1184.22ZM1200.65 59.8C1200.65 58.9833 1200.41 58.3833 1199.95 58C1199.48 57.6 1198.89 57.4 1198.17 57.4H1194.5V65.025H1198.17C1198.87 65.025 1199.46 64.8333 1199.92 64.45C1200.41 64.05 1200.65 63.425 1200.65 62.575V59.8ZM1198.17 55.45C1199.52 55.45 1200.61 55.8167 1201.42 56.55C1202.26 57.2667 1202.67 58.3333 1202.67 59.75V62.6C1202.67 63.3333 1202.56 63.975 1202.32 64.525C1202.11 65.0583 1201.8 65.5167 1201.4 65.9C1201 66.2667 1200.52 66.5417 1199.97 66.725C1199.44 66.9083 1198.86 67 1198.25 67H1194.5V71.65C1194.5 71.8833 1194.41 72.075 1194.25 72.225C1194.1 72.375 1193.85 72.45 1193.5 72.45C1193.15 72.45 1192.88 72.375 1192.7 72.225C1192.53 72.0917 1192.45 71.9083 1192.45 71.675V56.55C1192.45 56.3167 1192.52 56.075 1192.67 55.825C1192.84 55.575 1193.09 55.45 1193.42 55.45H1198.17ZM1149.98 87.35C1149.26 87.35 1148.67 87.5583 1148.21 87.975C1147.76 88.375 1147.53 89 1147.53 89.85V92.7C1147.53 93.5167 1147.76 94.125 1148.21 94.525C1148.67 94.9083 1149.26 95.1 1149.98 95.1H1151.11C1151.81 95.1 1152.39 94.9083 1152.86 94.525C1153.34 94.125 1153.58 93.5167 1153.58 92.7V89.85C1153.58 88.9833 1153.35 88.35 1152.88 87.95C1152.41 87.55 1151.82 87.35 1151.11 87.35H1149.98ZM1149.86 97C1149.26 97 1148.69 96.9083 1148.16 96.725C1147.64 96.5417 1147.18 96.275 1146.78 95.925C1146.38 95.5583 1146.06 95.1083 1145.83 94.575C1145.6 94.025 1145.48 93.3917 1145.48 92.675V89.85C1145.48 89.1333 1145.59 88.5083 1145.81 87.975C1146.04 87.425 1146.36 86.9667 1146.76 86.6C1147.16 86.2167 1147.63 85.9333 1148.18 85.75C1148.75 85.55 1149.36 85.45 1150.03 85.45H1151.16C1151.81 85.45 1152.41 85.5417 1152.96 85.725C1153.51 85.9083 1153.97 86.1917 1154.36 86.575C1154.76 86.9417 1155.06 87.4 1155.28 87.95C1155.51 88.5 1155.63 89.1333 1155.63 89.85V92.675C1155.63 93.3917 1155.51 94.025 1155.28 94.575C1155.05 95.1083 1154.72 95.5583 1154.31 95.925C1153.91 96.275 1153.43 96.5417 1152.88 96.725C1152.35 96.9083 1151.78 97 1151.18 97H1149.86ZM1163.11 87.425V96.1C1163.11 96.7667 1162.78 97.1 1162.11 97.1C1161.74 97.1 1161.49 97.025 1161.34 96.875C1161.19 96.725 1161.11 96.4667 1161.11 96.1V87.425H1158.09C1157.47 87.425 1157.16 87.1 1157.16 86.45C1157.16 85.7667 1157.47 85.425 1158.09 85.425H1166.14C1166.77 85.425 1167.09 85.7667 1167.09 86.45C1167.09 87.1 1166.77 87.425 1166.14 87.425H1163.11ZM1170.13 92.25V92.775C1170.13 93.4917 1170.36 94.0583 1170.83 94.475C1171.29 94.875 1171.89 95.075 1172.63 95.075H1176.13C1176.33 95.075 1176.51 95.1417 1176.68 95.275C1176.86 95.4083 1176.95 95.65 1176.95 96C1176.95 96.3333 1176.86 96.5833 1176.68 96.75C1176.49 96.9167 1176.31 97 1176.13 97H1172.48C1171.84 97 1171.26 96.9083 1170.73 96.725C1170.19 96.525 1169.73 96.25 1169.33 95.9C1168.94 95.5333 1168.63 95.0833 1168.4 94.55C1168.18 94.0167 1168.08 93.4 1168.08 92.7V89.9C1168.08 89.2 1168.19 88.575 1168.43 88.025C1168.68 87.4583 1169 86.9917 1169.4 86.625C1169.82 86.2417 1170.3 85.95 1170.85 85.75C1171.42 85.55 1172.03 85.45 1172.68 85.45H1173.55C1174.15 85.45 1174.72 85.55 1175.25 85.75C1175.78 85.9333 1176.25 86.2167 1176.65 86.6C1177.07 86.9667 1177.39 87.4333 1177.63 88C1177.88 88.55 1178 89.1833 1178 89.9V91.15C1178 91.3667 1177.92 91.6083 1177.75 91.875C1177.6 92.125 1177.31 92.25 1176.88 92.25H1170.13ZM1175.95 89.9C1175.95 89.05 1175.71 88.4333 1175.23 88.05C1174.74 87.6667 1174.15 87.475 1173.45 87.475H1172.58C1171.93 87.475 1171.35 87.675 1170.85 88.075C1170.37 88.4583 1170.13 89.0667 1170.13 89.9V90.55H1175.95V89.9ZM1189.36 97.05C1189 97.05 1188.73 96.975 1188.56 96.825C1188.41 96.6583 1188.34 96.3833 1188.34 96V87.525H1184.29L1183.74 93.4C1183.69 93.8333 1183.61 94.275 1183.51 94.725C1183.43 95.175 1183.27 95.5833 1183.04 95.95C1182.82 96.3 1182.51 96.5917 1182.11 96.825C1181.73 97.0583 1181.23 97.175 1180.61 97.175H1180.34C1180.06 97.175 1179.83 97.1 1179.66 96.95C1179.5 96.8 1179.41 96.5583 1179.41 96.225C1179.41 95.9083 1179.5 95.675 1179.66 95.525C1179.85 95.3583 1180.06 95.275 1180.29 95.275H1180.49C1180.92 95.275 1181.22 95.1 1181.39 94.75C1181.56 94.4 1181.68 93.8833 1181.76 93.2L1182.39 86.475C1182.42 86.0917 1182.51 85.825 1182.66 85.675C1182.81 85.5083 1183.08 85.425 1183.46 85.425H1189.39C1189.77 85.425 1190.05 85.5083 1190.21 85.675C1190.38 85.825 1190.46 86.0917 1190.46 86.475V96C1190.46 96.3833 1190.37 96.6583 1190.19 96.825C1190.02 96.975 1189.75 97.05 1189.36 97.05ZM1197.71 92.6L1194.84 96.65C1194.62 96.9833 1194.34 97.15 1193.99 97.15C1193.67 97.15 1193.41 97.0583 1193.21 96.875C1193.01 96.6917 1192.91 96.4917 1192.91 96.275C1192.93 96.175 1192.95 96.075 1192.96 95.975C1193 95.875 1193.06 95.7667 1193.14 95.65L1195.49 92.45C1194.69 92.2667 1194.06 91.9083 1193.59 91.375C1193.12 90.825 1192.89 90.0917 1192.89 89.175C1192.89 88.625 1192.99 88.125 1193.19 87.675C1193.39 87.2083 1193.66 86.8083 1194.01 86.475C1194.38 86.1417 1194.81 85.8833 1195.31 85.7C1195.83 85.5167 1196.4 85.425 1197.01 85.425H1201.76C1202.43 85.425 1202.76 85.7583 1202.76 86.425V96.125C1202.76 96.775 1202.43 97.1 1201.76 97.1C1201.41 97.1 1201.16 97.025 1200.99 96.875C1200.84 96.725 1200.76 96.475 1200.76 96.125V92.6H1197.71ZM1196.86 87.35C1196.3 87.35 1195.81 87.5167 1195.41 87.85C1195.03 88.1833 1194.84 88.6333 1194.84 89.2C1194.84 89.4 1194.87 89.6 1194.94 89.8C1195.01 89.9833 1195.11 90.1583 1195.26 90.325C1195.41 90.475 1195.61 90.6 1195.84 90.7C1196.09 90.8 1196.39 90.85 1196.74 90.85H1200.76V87.35H1196.86Z" fill="#272727"></path><rect x="1" y="10" width="1203" height="2" fill="#272727"></rect><circle cx="11" cy="11" r="11" fill="#272727"></circle><circle cx="1195" cy="11" r="10" fill="white" stroke="#272727" stroke-width="2"></circle><circle cx="603" cy="11" r="10" fill="white" stroke="#272727" stroke-width="2"></circle></svg>